<?xml version="1.0" encoding="utf-8"?>
<!-- Generator: Adobe Illustrator 24.0.0, SVG Export Plug-In . SVG Version: 6.00 Build 0)  -->
<svg version="1.1" id="Layer_1" xmlns="http://www.w3.org/2000/svg" xmlns:xlink="http://www.w3.org/1999/xlink" x="0px" y="0px"
	 viewBox="0 0 1080 1080" xml:space="preserve">
<style type="text/css">
	.st0{fill:#000;}
	.st1{fill:#FFFFFF;}
	.st2{fill:#FAE225;}
</style>
<circle class="st0" cx="528.02" cy="550.89" r="461.21"/>
<circle class="st1" cx="528.02" cy="550.89" r="433.75"/>
<circle class="st2" cx="528.02" cy="550.89" r="408.13"/>
<g>
	<path class="st0" d="M368.51,609.89c0,33.57-0.61,96.16-0.84,116.07l-24.63-24.63c-7.2-9.24-14.57-18.34-21.57-27.71
		c-15.02-20.11-27.81-41.47-38.34-63.7c-35.44-74.79-45.27-159.49-28.53-240.21h40.66c-9.19,40.27-10.61,82.49-4.22,125.51
		c2.03,13.76,5.66,26.66,9.5,40.31l0.41,1.44c1.18,4.23,2.42,8.59,3.55,12.89l4.57,17.16c0,0,58.75-0.03,59.42,0v0.36
		C368.49,581.54,368.49,595.74,368.51,609.89z"/>
	<path class="st0" d="M801.6,732.08h-41.58c14.15-59.06,11.25-120.57-8.66-182.85l-5.22-16.04h-57.89v-158.1
		c0.68,0.61,1.37,1.23,2.04,1.86c1.07,0.97,2.13,1.95,3.17,2.94c0.96,0.9,1.92,1.81,2.87,2.74c22.91,21.98,42.59,46.92,58.83,74.01
		C803.37,537.04,821.08,636.21,801.6,732.08z"/>
	<g>
		<path class="st0" d="M739.53,728.62l-0.84,3.45h-96.5V572.87L532.15,709.05l-108.5-136.18v159.21h-35.32
			c0.1-6.35,0.91-83.68,0.91-122.18c-0.02-14.18-0.02-28.36-0.02-42.52c0-0.47-0.01-0.92-0.02-1.38v-21.53h-64.69
			c-0.63-2.4-1.28-4.79-1.94-7.16c-0.67-2.41-1.35-4.79-2.01-7.16c-3.68-13.08-7.17-25.43-9.01-37.96
			c-6.07-40.92-4.67-81.02,4.22-119.2l0.77-3.28h131.27l85.44,98.03l85.47-98.03h48.81v183.46h0.03v2.53h64.11
			C750.51,614.74,753.17,672.91,739.53,728.62z"/>
	</g>
</g>
</svg>
